<svg xmlns="http://www.w3.org/2000/svg" viewBox="0 0 800 450">
  <defs>
    <linearGradient id="pitch108" x1="0%" y1="0%" x2="0%" y2="100%">
      <stop offset="0%" style="stop-color:#1e8449"/>
      <stop offset="100%" style="stop-color:#145a32"/>
    </linearGradient>
  </defs>
  <rect fill="#2c3e50" width="800" height="200"/>
  <rect fill="url(#pitch108)" y="200" width="800" height="250"/>
  <!-- Stadium stands -->
  <path d="M0,200 L100,150 L200,180 L300,140 L400,170 L500,130 L600,160 L700,140 L800,180 L800,200 Z" fill="#f1c40f"/>
  <!-- Fans silhouettes -->
  <g fill="#2c3e50" opacity="0.7">
    <circle cx="150" cy="170" r="10"/><circle cx="250" cy="160" r="10"/><circle cx="350" cy="155" r="10"/>
    <circle cx="450" cy="150" r="10"/><circle cx="550" cy="145" r="10"/><circle cx="650" cy="155" r="10"/>
  </g>
  <!-- Goal -->
  <rect x="300" y="280" width="200" height="120" fill="none" stroke="#fff" stroke-width="4"/>
  <line x1="300" y1="280" x2="350" y2="250" stroke="#fff" stroke-width="2"/>
  <line x1="500" y1="280" x2="450" y2="250" stroke="#fff" stroke-width="2"/>
  <!-- Svenska Cupen logo -->
  <circle cx="400" cy="100" r="60" fill="#004b93"/>
  <text x="400" y="95" text-anchor="middle" fill="#f1c40f" font-family="Arial" font-size="14" font-weight="bold">SVENSKA</text>
  <text x="400" y="115" text-anchor="middle" fill="#f1c40f" font-family="Arial" font-size="16" font-weight="bold">CUPEN</text>
  <text x="400" y="420" text-anchor="middle" fill="#fff" font-family="Arial" font-size="20" font-weight="bold">MAIF vs KALMAR FF - 21 FEBRUARI</text>
</svg>