<svg xmlns="http://www.w3.org/2000/svg" viewBox="0 0 800 450">
  <defs>
    <linearGradient id="stadium" x1="0%" y1="0%" x2="0%" y2="100%">
      <stop offset="0%" style="stop-color:#2c3e50"/>
      <stop offset="100%" style="stop-color:#1a252f"/>
    </linearGradient>
  </defs>
  <rect fill="url(#stadium)" width="800" height="450"/>
  <!-- Stadium stands with fans -->
  <path d="M0,200 Q400,100 800,200 L800,350 Q400,280 0,350 Z" fill="#f1c40f"/>
  <!-- Fans (dots) -->
  <g fill="#2c3e50">
    <circle cx="100" cy="250" r="8"/><circle cx="130" cy="240" r="8"/><circle cx="160" cy="255" r="8"/>
    <circle cx="200" cy="245" r="8"/><circle cx="230" cy="260" r="8"/><circle cx="260" cy="250" r="8"/>
    <circle cx="300" cy="240" r="8"/><circle cx="330" cy="255" r="8"/><circle cx="360" cy="245" r="8"/>
    <circle cx="400" cy="260" r="8"/><circle cx="430" cy="250" r="8"/><circle cx="460" cy="240" r="8"/>
    <circle cx="500" cy="255" r="8"/><circle cx="530" cy="245" r="8"/><circle cx="560" cy="260" r="8"/>
    <circle cx="600" cy="250" r="8"/><circle cx="630" cy="240" r="8"/><circle cx="660" cy="255" r="8"/>
    <circle cx="700" cy="245" r="8"/>
  </g>
  <!-- REKORD banner -->
  <rect x="250" y="100" width="300" height="60" fill="#e74c3c" rx="5"/>
  <text x="400" y="140" text-anchor="middle" fill="#fff" font-family="Arial" font-size="28" font-weight="bold">SLUTSÅLT!</text>
  <!-- Ticket -->
  <rect x="320" y="320" width="160" height="80" fill="#fff" rx="5"/>
  <text x="400" y="355" text-anchor="middle" fill="#2c3e50" font-family="Arial" font-size="14" font-weight="bold">ÅRSKORT 2026</text>
  <text x="400" y="380" text-anchor="middle" fill="#f1c40f" font-family="Arial" font-size="20" font-weight="bold">MAIF</text>
  <text x="400" y="420" text-anchor="middle" fill="#f1c40f" font-family="Arial" font-size="18" font-weight="bold">REKORDFÖRSÄLJNING</text>
</svg>