<svg xmlns="http://www.w3.org/2000/svg" viewBox="0 0 800 450">
  <rect fill="#2c3e50" width="800" height="450"/>
  <!-- Library shelves -->
  <rect x="50" y="100" width="200" height="300" fill="#8b4513"/>
  <rect x="60" y="110" width="180" height="40" fill="#5d3a1a"/>
  <rect x="60" y="160" width="180" height="40" fill="#5d3a1a"/>
  <rect x="60" y="210" width="180" height="40" fill="#5d3a1a"/>
  <!-- Books -->
  <g>
    <rect x="70" y="115" width="15" height="30" fill="#e74c3c"/>
    <rect x="90" y="115" width="12" height="30" fill="#3498db"/>
    <rect x="107" y="115" width="18" height="30" fill="#27ae60"/>
    <rect x="130" y="115" width="14" height="30" fill="#f1c40f"/>
  </g>
  <!-- Computer/3D printer area -->
  <rect x="350" y="150" width="150" height="100" fill="#34495e" rx="10"/>
  <rect x="360" y="160" width="130" height="70" fill="#3498db"/>
  <text x="425" y="200" text-anchor="middle" fill="#fff" font-family="Arial" font-size="14">DIGILABB</text>
  <!-- 3D printer -->
  <rect x="550" y="180" width="100" height="80" fill="#95a5a6"/>
  <rect x="560" y="190" width="80" height="50" fill="#7f8c8d"/>
  <polygon points="600,200 580,230 620,230" fill="#e74c3c"/>
  <!-- People -->
  <ellipse cx="420" cy="320" rx="20" ry="20" fill="#f5cba7"/>
  <rect x="405" y="340" width="30" height="60" fill="#9b59b6"/>
  <ellipse cx="550" cy="330" rx="18" ry="18" fill="#f5cba7"/>
  <rect x="537" y="348" width="26" height="55" fill="#3498db"/>
  <!-- Text -->
  <rect x="250" y="50" width="300" height="50" fill="#27ae60" rx="10"/>
  <text x="400" y="82" text-anchor="middle" fill="#fff" font-family="Arial" font-size="22" font-weight="bold">DIGILABB ÖPPNAR</text>
  <text x="400" y="420" text-anchor="middle" fill="#fff" font-family="Arial" font-size="16">STENBACKA BIBLIOTEK</text>
</svg>