<svg xmlns="http://www.w3.org/2000/svg" viewBox="0 0 800 450">
  <defs>
    <linearGradient id="gala" x1="0%" y1="0%" x2="0%" y2="100%">
      <stop offset="0%" style="stop-color:#1a1a2e"/>
      <stop offset="100%" style="stop-color:#16213e"/>
    </linearGradient>
  </defs>
  <rect fill="url(#gala)" width="800" height="450"/>
  <!-- Spotlight effects -->
  <ellipse cx="200" cy="0" rx="150" ry="300" fill="#f1c40f" opacity="0.1"/>
  <ellipse cx="600" cy="0" rx="150" ry="300" fill="#f1c40f" opacity="0.1"/>
  <!-- Stage -->
  <rect x="100" y="300" width="600" height="100" fill="#2c3e50"/>
  <rect x="80" y="290" width="640" height="20" fill="#34495e"/>
  <!-- Trophy -->
  <path d="M370,200 L370,180 L430,180 L430,200 Q460,210 460,240 L450,240 L450,225 Q450,215 430,210 L430,270 L440,290 L440,300 L360,300 L360,290 L370,270 L370,210 Q350,215 350,225 L350,240 L340,240 Q340,210 370,200" fill="#f1c40f"/>
  <rect x="360" y="300" width="80" height="15" fill="#bdc3c7"/>
  <!-- Elegant table settings -->
  <ellipse cx="200" cy="350" rx="60" ry="20" fill="#fff"/>
  <ellipse cx="400" cy="350" rx="60" ry="20" fill="#fff"/>
  <ellipse cx="600" cy="350" rx="60" ry="20" fill="#fff"/>
  <!-- Candles -->
  <rect x="195" y="320" width="10" height="30" fill="#ecf0f1"/>
  <ellipse cx="200" cy="315" rx="8" ry="12" fill="#f39c12"/>
  <rect x="395" y="320" width="10" height="30" fill="#ecf0f1"/>
  <ellipse cx="400" cy="315" rx="8" ry="12" fill="#f39c12"/>
  <!-- Stars -->
  <text x="150" y="100" fill="#f1c40f" font-size="20">★</text>
  <text x="650" y="80" fill="#f1c40f" font-size="25">★</text>
  <text x="400" y="60" fill="#f1c40f" font-size="18">★</text>
  <!-- Text -->
  <text x="400" y="140" text-anchor="middle" fill="#f1c40f" font-family="Arial" font-size="28" font-weight="bold">GILLA KARLSHAMN</text>
  <text x="400" y="170" text-anchor="middle" fill="#fff" font-family="Arial" font-size="16">NÄRINGSLIVSGALAN</text>
  <text x="400" y="430" text-anchor="middle" fill="#fff" font-family="Arial" font-size="18">28 MARS - ÖSTRA PIREN</text>
</svg>