<svg xmlns="http://www.w3.org/2000/svg" viewBox="0 0 800 450">
  <defs>
    <linearGradient id="led" x1="0%" y1="0%" x2="100%" y2="100%">
      <stop offset="0%" style="stop-color:#3498db"/>
      <stop offset="33%" style="stop-color:#9b59b6"/>
      <stop offset="66%" style="stop-color:#e91e63"/>
      <stop offset="100%" style="stop-color:#f1c40f"/>
    </linearGradient>
  </defs>
  <rect fill="#1a1a2e" width="800" height="450"/>
  <!-- Main stage structure -->
  <rect x="150" y="100" width="500" height="280" fill="#2c3e50"/>
  <!-- LED panels -->
  <rect x="170" y="120" width="460" height="200" fill="url(#led)" opacity="0.7"/>
  <!-- Grid pattern on LED -->
  <g stroke="#1a1a2e" stroke-width="1" opacity="0.3">
    <line x1="170" y1="160" x2="630" y2="160"/>
    <line x1="170" y1="200" x2="630" y2="200"/>
    <line x1="170" y1="240" x2="630" y2="240"/>
    <line x1="170" y1="280" x2="630" y2="280"/>
    <line x1="250" y1="120" x2="250" y2="320"/>
    <line x1="340" y1="120" x2="340" y2="320"/>
    <line x1="430" y1="120" x2="430" y2="320"/>
    <line x1="520" y1="120" x2="520" y2="320"/>
  </g>
  <!-- Moving elements -->
  <rect x="200" y="340" width="100" height="30" fill="#7f8c8d"/>
  <rect x="350" y="350" width="100" height="20" fill="#7f8c8d"/>
  <rect x="500" y="340" width="100" height="30" fill="#7f8c8d"/>
  <!-- Spotlight rigs -->
  <line x1="100" y1="50" x2="200" y2="100" stroke="#95a5a6" stroke-width="5"/>
  <line x1="700" y1="50" x2="600" y2="100" stroke="#95a5a6" stroke-width="5"/>
  <circle cx="100" cy="50" r="15" fill="#f1c40f"/>
  <circle cx="700" cy="50" r="15" fill="#f1c40f"/>
  <!-- Catwalks -->
  <rect x="350" y="380" width="100" height="50" fill="#34495e"/>
  <!-- Text -->
  <text x="400" y="220" text-anchor="middle" fill="#fff" font-family="Arial" font-size="40" font-weight="bold">2026</text>
  <!-- Title -->
  <rect x="200" y="400" width="400" height="40" fill="#e91e63" rx="10"/>
  <text x="400" y="427" text-anchor="middle" fill="#fff" font-family="Arial" font-size="18" font-weight="bold">NY SCENDESIGN AVSLÖJAD</text>
</svg>