<svg xmlns="http://www.w3.org/2000/svg" viewBox="0 0 800 450">
  <defs>
    <linearGradient id="sky106" x1="0%" y1="0%" x2="0%" y2="100%">
      <stop offset="0%" style="stop-color:#3498db"/>
      <stop offset="100%" style="stop-color:#85c1e9"/>
    </linearGradient>
  </defs>
  <rect fill="url(#sky106)" width="800" height="300"/>
  <rect fill="#f4d03f" y="300" width="800" height="150"/>
  <!-- Sun -->
  <circle cx="650" cy="80" r="50" fill="#f39c12"/>
  <!-- Palm trees -->
  <rect x="100" y="200" width="15" height="150" fill="#7d5a2a"/>
  <ellipse cx="80" cy="200" rx="50" ry="20" fill="#27ae60"/>
  <ellipse cx="120" cy="190" rx="45" ry="18" fill="#2ecc71"/>
  <ellipse cx="100" cy="180" rx="40" ry="15" fill="#27ae60"/>
  <rect x="680" y="220" width="15" height="130" fill="#7d5a2a"/>
  <ellipse cx="660" cy="220" rx="50" ry="20" fill="#27ae60"/>
  <ellipse cx="700" cy="210" rx="45" ry="18" fill="#2ecc71"/>
  <!-- Football -->
  <circle cx="400" cy="350" r="30" fill="#fff" stroke="#2c3e50" stroke-width="2"/>
  <path d="M385,340 L400,325 L415,340 L410,360 L390,360 Z" fill="#2c3e50"/>
  <!-- Players training -->
  <g>
    <ellipse cx="300" cy="310" rx="12" ry="12" fill="#2c3e50"/>
    <rect x="292" y="322" width="16" height="35" fill="#f1c40f"/>
    <ellipse cx="500" cy="320" rx="12" ry="12" fill="#2c3e50"/>
    <rect x="492" y="332" width="16" height="35" fill="#f1c40f"/>
  </g>
  <!-- Portugal flag colors bar -->
  <rect x="0" y="0" width="800" height="10" fill="#006600"/>
  <rect x="0" y="10" width="800" height="10" fill="#ff0000"/>
  <text x="400" y="420" text-anchor="middle" fill="#2c3e50" font-family="Arial" font-size="20" font-weight="bold">ATLANTIC CUP - PORTUGAL</text>
</svg>