<svg xmlns="http://www.w3.org/2000/svg" viewBox="0 0 800 450">
  <rect fill="#87ceeb" width="800" height="450"/>
  <!-- Street -->
  <rect x="0" y="320" width="800" height="130" fill="#7f8c8d"/>
  <line x1="0" y1="385" x2="800" y2="385" stroke="#f1c40f" stroke-width="4" stroke-dasharray="30,20"/>
  <!-- Ice cream bike -->
  <circle cx="350" cy="340" r="40" fill="#333" stroke="#555" stroke-width="5"/>
  <circle cx="550" cy="340" r="40" fill="#333" stroke="#555" stroke-width="5"/>
  <rect x="320" y="250" width="260" height="80" fill="#3498db" rx="10"/>
  <rect x="340" y="200" width="60" height="60" fill="#fff"/>
  <!-- Ice cream cones on cart -->
  <polygon points="360,220 370,250 380,220" fill="#deb887"/>
  <circle cx="370" cy="210" r="15" fill="#f48fb1"/>
  <polygon points="400,220 410,250 420,220" fill="#deb887"/>
  <circle cx="410" cy="210" r="15" fill="#81d4fa"/>
  <!-- Person on bike -->
  <circle cx="480" cy="210" r="25" fill="#fad7a0"/>
  <rect x="465" y="235" width="30" height="50" fill="#e74c3c"/>
  <!-- Sun -->
  <circle cx="700" cy="80" r="50" fill="#f1c40f"/>
  <!-- Buildings background -->
  <rect x="50" y="180" width="80" height="140" fill="#bdc3c7"/>
  <rect x="650" y="200" width="100" height="120" fill="#bdc3c7"/>
  <text x="400" y="420" text-anchor="middle" fill="#fff" font-family="Arial" font-size="18" font-weight="bold">GLASSFÖRSÄLJNING PÅ CYKEL</text>
</svg>