<svg xmlns="http://www.w3.org/2000/svg" viewBox="0 0 800 450">
  <defs>
    <linearGradient id="sky208" x1="0%" y1="0%" x2="0%" y2="100%">
      <stop offset="0%" style="stop-color:#87ceeb"/>
      <stop offset="100%" style="stop-color:#e0f7fa"/>
    </linearGradient>
  </defs>
  <rect fill="url(#sky208)" width="800" height="300"/>
  <rect fill="#8b7355" y="300" width="800" height="150"/>
  <!-- Old stone barn/museum building -->
  <rect x="200" y="150" width="400" height="200" fill="#a0a0a0"/>
  <!-- Stone texture -->
  <g fill="#808080" opacity="0.5">
    <rect x="210" y="160" width="40" height="25" rx="3"/>
    <rect x="260" y="160" width="35" height="25" rx="3"/>
    <rect x="210" y="195" width="50" height="30" rx="3"/>
    <rect x="270" y="195" width="40" height="30" rx="3"/>
    <rect x="500" y="170" width="45" height="28" rx="3"/>
    <rect x="550" y="170" width="40" height="28" rx="3"/>
  </g>
  <!-- Roof -->
  <polygon points="180,150 400,60 620,150" fill="#8b4513"/>
  <!-- Door -->
  <rect x="350" y="250" width="100" height="100" fill="#5d3a1a"/>
  <circle cx="430" cy="300" r="8" fill="#f1c40f"/>
  <!-- Windows -->
  <rect x="230" y="200" width="60" height="50" fill="#2c3e50"/>
  <rect x="510" y="200" width="60" height="50" fill="#2c3e50"/>
  <!-- Old tools displayed outside -->
  <line x1="150" y1="280" x2="150" y2="350" stroke="#5d3a1a" stroke-width="5"/>
  <ellipse cx="150" cy="275" rx="20" ry="8" fill="#7f8c8d"/>
  <rect x="650" y="300" width="10" height="60" fill="#5d3a1a"/>
  <rect x="640" y="295" width="30" height="10" fill="#7f8c8d"/>
  <!-- Sign -->
  <rect x="250" y="380" width="300" height="40" fill="#5d3a1a"/>
  <text x="400" y="407" text-anchor="middle" fill="#fff" font-family="Arial" font-size="16" font-weight="bold">ASARUMS BYGDEMUSEUM</text>
  <!-- Title -->
  <text x="400" y="40" text-anchor="middle" fill="#5d3a1a" font-family="Arial" font-size="22" font-weight="bold">BYGDEMUSEET VID STENBACKAGÅRDEN</text>
</svg>