<svg xmlns="http://www.w3.org/2000/svg" viewBox="0 0 800 450">
  <rect fill="#1e8449" width="800" height="450"/>
  <!-- Football pitch from above -->
  <rect x="50" y="50" width="700" height="350" fill="#27ae60" stroke="#fff" stroke-width="3"/>
  <line x1="400" y1="50" x2="400" y2="400" stroke="#fff" stroke-width="2"/>
  <circle cx="400" cy="225" r="60" stroke="#fff" stroke-width="2" fill="none"/>
  <circle cx="400" cy="225" r="5" fill="#fff"/>
  <!-- Penalty areas -->
  <rect x="50" y="125" width="100" height="150" fill="none" stroke="#fff" stroke-width="2"/>
  <rect x="650" y="125" width="100" height="150" fill="none" stroke="#fff" stroke-width="2"/>
  <!-- Calendar overlay -->
  <rect x="250" y="100" width="300" height="250" fill="#fff" rx="10"/>
  <rect x="250" y="100" width="300" height="50" fill="#e74c3c" rx="10"/>
  <rect x="250" y="140" width="300" height="10" fill="#e74c3c"/>
  <text x="400" y="135" text-anchor="middle" fill="#fff" font-family="Arial" font-size="20" font-weight="bold">ALLSVENSKAN 2026</text>
  <!-- Calendar grid -->
  <g fill="#2c3e50" font-family="Arial" font-size="12">
    <text x="280" y="180">APR</text><text x="330" y="180">MAJ</text><text x="380" y="180">JUN</text>
    <text x="430" y="180">JUL</text><text x="480" y="180">AUG</text>
  </g>
  <g fill="#f1c40f">
    <circle cx="290" cy="210" r="12"/><circle cx="340" cy="230" r="12"/><circle cx="390" cy="250" r="12"/>
    <circle cx="440" cy="210" r="12"/><circle cx="490" cy="240" r="12"/>
  </g>
  <text x="400" y="320" text-anchor="middle" fill="#2c3e50" font-family="Arial" font-size="16" font-weight="bold">30 OMGÅNGAR</text>
  <text x="400" y="420" text-anchor="middle" fill="#fff" font-family="Arial" font-size="18" font-weight="bold">SPELORDNINGEN KLAR</text>
</svg>