<svg xmlns="http://www.w3.org/2000/svg" viewBox="0 0 800 450">
  <defs>
    <linearGradient id="grass109" x1="0%" y1="0%" x2="0%" y2="100%">
      <stop offset="0%" style="stop-color:#27ae60"/>
      <stop offset="100%" style="stop-color:#1e8449"/>
    </linearGradient>
  </defs>
  <rect fill="#3498db" width="800" height="250"/>
  <rect fill="url(#grass109)" y="250" width="800" height="200"/>
  <!-- Young players training -->
  <g>
    <!-- Player 1 -->
    <ellipse cx="200" cy="280" rx="15" ry="15" fill="#f5cba7"/>
    <rect x="188" y="295" width="24" height="50" fill="#f1c40f"/>
    <rect x="188" y="345" width="10" height="30" fill="#2c3e50"/>
    <rect x="202" y="345" width="10" height="30" fill="#2c3e50"/>
    <!-- Player 2 -->
    <ellipse cx="350" cy="300" rx="15" ry="15" fill="#f5cba7"/>
    <rect x="338" y="315" width="24" height="50" fill="#f1c40f"/>
    <rect x="338" y="365" width="10" height="30" fill="#2c3e50"/>
    <rect x="352" y="365" width="10" height="30" fill="#2c3e50"/>
    <!-- Player 3 -->
    <ellipse cx="500" cy="290" rx="15" ry="15" fill="#f5cba7"/>
    <rect x="488" y="305" width="24" height="50" fill="#f1c40f"/>
    <rect x="488" y="355" width="10" height="30" fill="#2c3e50"/>
    <rect x="502" y="355" width="10" height="30" fill="#2c3e50"/>
    <!-- Player 4 -->
    <ellipse cx="650" cy="310" rx="15" ry="15" fill="#f5cba7"/>
    <rect x="638" y="325" width="24" height="50" fill="#f1c40f"/>
    <rect x="638" y="375" width="10" height="30" fill="#2c3e50"/>
    <rect x="652" y="375" width="10" height="30" fill="#2c3e50"/>
  </g>
  <!-- Footballs -->
  <circle cx="250" cy="380" r="15" fill="#fff" stroke="#2c3e50" stroke-width="1"/>
  <circle cx="450" cy="370" r="15" fill="#fff" stroke="#2c3e50" stroke-width="1"/>
  <!-- Coach -->
  <ellipse cx="100" cy="300" rx="18" ry="18" fill="#2c3e50"/>
  <rect x="85" y="318" width="30" height="60" fill="#2c3e50"/>
  <!-- Text -->
  <rect x="200" y="60" width="400" height="80" fill="#f1c40f" rx="10"/>
  <text x="400" y="100" text-anchor="middle" fill="#2c3e50" font-family="Arial" font-size="20" font-weight="bold">REGIONTRÄNING</text>
  <text x="400" y="125" text-anchor="middle" fill="#2c3e50" font-family="Arial" font-size="14">Spelare födda 2011-2014</text>
</svg>