<svg xmlns="http://www.w3.org/2000/svg" viewBox="0 0 800 450">
  <defs>
    <linearGradient id="stage5" x1="0%" y1="0%" x2="0%" y2="100%">
      <stop offset="0%" style="stop-color:#1a1a2e"/>
      <stop offset="100%" style="stop-color:#2c3e50"/>
    </linearGradient>
  </defs>
  <rect fill="url(#stage5)" width="800" height="450"/>
  <!-- Spotlight -->
  <ellipse cx="400" cy="300" rx="250" ry="300" fill="#3498db" opacity="0.15"/>
  <!-- Robin Bengtsson singing -->
  <ellipse cx="400" cy="170" rx="35" ry="35" fill="#f5cba7"/>
  <rect x="370" y="205" width="60" height="110" fill="#2c3e50"/>
  <!-- Jacket details -->
  <rect x="365" y="205" width="70" height="20" fill="#e74c3c"/>
  <!-- Microphone -->
  <line x1="350" y1="240" x2="330" y2="210" stroke="#7f8c8d" stroke-width="4"/>
  <ellipse cx="325" cy="205" rx="10" ry="7" fill="#2c3e50" transform="rotate(30 325 205)"/>
  <!-- Dancing pose suggestion -->
  <line x1="370" y1="250" x2="340" y2="280" stroke="#f5cba7" stroke-width="10" stroke-linecap="round"/>
  <line x1="430" y1="250" x2="460" y2="270" stroke="#f5cba7" stroke-width="10" stroke-linecap="round"/>
  <!-- ESC 2017 reference star -->
  <polygon points="550,100 560,130 590,130 565,150 575,180 550,160 525,180 535,150 510,130 540,130" fill="#f1c40f"/>
  <text x="550" y="145" text-anchor="middle" fill="#1a1a2e" font-family="Arial" font-size="10" font-weight="bold">2017</text>
  <!-- Name and title -->
  <text x="400" y="80" text-anchor="middle" fill="#f1c40f" font-family="Arial" font-size="32" font-weight="bold">ROBIN BENGTSSON</text>
  <text x="400" y="115" text-anchor="middle" fill="#fff" font-family="Arial" font-size="18">TILLBAKA I MELLO</text>
  <!-- Quote/song hint -->
  <rect x="250" y="370" width="300" height="50" fill="#e74c3c" rx="10"/>
  <text x="400" y="400" text-anchor="middle" fill="#fff" font-family="Arial" font-size="16" font-style="italic">"Känns som att komma hem"</text>
</svg>